<?xml version="1.0" encoding="UTF-8" standalone="no"?>
<!-- Created with Inkscape (http://www.inkscape.org/) -->

<svg
   viewBox="0 0 25.026709 34.766678"
   version="1.1"
   id="svg5"
   inkscape:version="1.1.2 (b8e25be833, 2022-02-05)"
   sodipodi:docname="autoflow_logo.svg"
   xmlns:inkscape="http://www.inkscape.org/namespaces/inkscape"
   xmlns:sodipodi="http://sodipodi.sourceforge.net/DTD/sodipodi-0.dtd"
   xmlns="http://www.w3.org/2000/svg"
   xmlns:svg="http://www.w3.org/2000/svg">
  <sodipodi:namedview
     id="namedview7"
     pagecolor="#ffffff"
     bordercolor="#999999"
     borderopacity="1"
     inkscape:pageshadow="0"
     inkscape:pageopacity="0"
     inkscape:pagecheckerboard="0"
     inkscape:document-units="mm"
     showgrid="false"
     fit-margin-top="0"
     fit-margin-left="0"
     fit-margin-right="0"
     fit-margin-bottom="0"
     inkscape:zoom="4.6039282"
     inkscape:cx="20.743156"
     inkscape:cy="72.220936"
     inkscape:window-width="1920"
     inkscape:window-height="1009"
     inkscape:window-x="-8"
     inkscape:window-y="-8"
     inkscape:window-maximized="1"
     inkscape:current-layer="Capa_x0020_1" />
  <defs
     id="defs2">
    <style
       type="text/css"
       id="style34">
   <![CDATA[
    .fil4 {fill:black}
    .fil1 {fill:#0D4B56}
    .fil3 {fill:#2E5747}
    .fil0 {fill:#3BA1A6}
    .fil2 {fill:#498E6F}
    .fnt0 {font-weight:normal;font-size:3213.7px;font-family:'Comic Sans MS'}
    .fnt2 {font-style:italic;font-weight:300;font-size:525.36px;font-family:'Gill Sans Nova Light'}
    .fnt1 {font-style:italic;font-weight:300;font-size:798.88px;font-family:'Gill Sans Nova Light'}
   ]]>
  </style>
  </defs>
  <g
     inkscape:label="Layer 1"
     inkscape:groupmode="layer"
     id="layer1"
     transform="translate(-0.28219653,-0.31712545)">
    <g
       style="clip-rule:evenodd;fill-rule:evenodd;image-rendering:optimizeQuality;shape-rendering:geometricPrecision;text-rendering:geometricPrecision"
       id="g70"
       transform="matrix(0.00537191,0,0,0.00537191,15.224147,65.372132)">
      <g
         id="Capa_x0020_1"
         inkscape:label="Capa 1"
         inkscape:groupmode="layer">
  <metadata
   id="CorelCorpID_0Corel-Layer" />

  <g
   id="_2658819831536"
   transform="translate(-2781.4968,-12110.209)">
   <path
   class="fil0"
   d="m 4424.67,3650.02 c 146.99,-194.96 234.14,-437.57 234.14,-700.53 0,-404.36 -206.05,-760.6 -518.85,-969.43 -184.85,-123.42 -448.54,-195.16 -687.48,-195.16 228.97,0 414.58,185.61 414.58,414.58 0,90.49 -32.93,188.83 -82.11,256.98 L 2329.21,4411.3 v 2060.63 l 2095.46,-2821.9 z"
   id="path39" />

   <path
   class="fil1"
   d="m 3452.48,1784.9 c 228.97,0 414.58,185.61 414.58,414.58 0,90.49 -32.93,188.83 -82.11,256.98 l -414.99,557.27 H 2329.21 V 1784.89 h 1123.27 z"
   id="path41" />

   <path
   class="fil2"
   d="M 234.14,2821.9 C 87.15,3016.86 0,3259.47 0,3522.43 c 0,404.36 206.05,760.6 518.85,969.43 184.85,123.42 448.54,195.16 687.48,195.16 -228.97,0 -414.58,-185.61 -414.58,-414.56 0,-90.51 32.93,-188.85 82.11,-257 L 2329.6,2060.62 V -0.01 L 234.14,2821.89 Z"
   id="path43" />

   <path
   class="fil3"
   d="m 1205.96,4687.03 c -228.97,0 -414.58,-185.61 -414.58,-414.56 0,-90.51 32.93,-188.85 82.11,-257 L 1288.48,3458.2 H 2329.21 V 4687.04 H 1205.96 Z"
   id="path45" />

  </g>

  
  
  
 </g>
    </g>
  </g>
</svg>
