<?xml version="1.0" encoding="UTF-8"?>
<!DOCTYPE svg PUBLIC "-//W3C//DTD SVG 1.1//EN" "http://www.w3.org/Graphics/SVG/1.1/DTD/svg11.dtd">
<!-- Creator: CorelDRAW 2020 (64-Bit) -->
<svg xmlns="http://www.w3.org/2000/svg" xml:space="preserve" width="317.956mm" height="317.956mm" version="1.1" style="shape-rendering:geometricPrecision; text-rendering:geometricPrecision; image-rendering:optimizeQuality; fill-rule:evenodd; clip-rule:evenodd"
viewBox="0 0 4094.34 4094.34"
 xmlns:xlink="http://www.w3.org/1999/xlink"
 xmlns:xodm="http://www.corel.com/coreldraw/odm/2003">
 <defs>
  <style type="text/css">
   <![CDATA[
    .str1 {stroke:black;stroke-width:2.58;stroke-miterlimit:22.9256}
    .str2 {stroke:black;stroke-width:2.58;stroke-miterlimit:22.9256}
    .str0 {stroke:white;stroke-width:2.58;stroke-miterlimit:22.9256}
    .fil6 {fill:none}
    .fil2 {fill:black}
    .fil3 {fill:#1A1A1A}
    .fil4 {fill:#1A393D}
    .fil1 {fill:#88B8B8}
    .fil0 {fill:#F7F5E4}
    .fil5 {fill:#FEFBDD}
    .fil7 {fill:white}
    .fnt0 {font-weight:bold;font-size:417.93px;font-family:'Comic Sans MS'}
   ]]>
  </style>
    <clipPath id="id0">
     <path d="M2047.17 3807.48c-972.19,0 -1760.31,-788.12 -1760.31,-1760.31 0,-972.19 788.12,-1760.31 1760.31,-1760.31 972.19,0 1760.31,788.12 1760.31,1760.31 0,972.19 -788.12,1760.31 -1760.31,1760.31z"/>
    </clipPath>
 </defs>
 <g id="Capa_x0020_1">
  <metadata id="CorelCorpID_0Corel-Layer"/>
  <g id="_2274480729504">
   <g>
   </g>
   <g style="clip-path:url(#id0)">
    <g id="_2274480729840">
     <polygon class="fil0 str0" points="265.71,2136.67 373.37,2088.97 494.66,1940.42 613.23,1843.66 607.78,1742.82 824.46,1357.14 973.01,1215.4 1151.54,1005.53 1372.32,844.72 1734.83,843.35 1931.08,914.22 2083.71,991.9 2188.65,1102.29 2252.7,1149.99 2316.76,1179.97 2390.35,1254.92 2493.92,1245.39 2562.07,1283.54 2594.77,1331.24 2634.3,1418.46 2647.92,1494.1 2667,1582.34 2642.47,1666.16 2481.66,1683.19 2060.2,1608.58 2079.28,1703.97 2212.84,1901.58 2482.68,2039.23 2470.41,2096.47 2345.03,2168.7 2191.03,2183.69 1978.43,2011.97 1741.3,2058.31 1647.26,2221.85 1742.66,2490.32 2009.78,2488.96 2287.79,2606.16 2377.74,2619.79 2561.72,2465.79 2843.82,2378.57 3018.27,2101.92 3026.44,1950.64 2920.14,1874.32 2858.81,1776.2 2872.44,1551.34 2875.17,1466.84 2999.19,1410.96 3240.41,1406.88 3368.51,1413.69 3470.72,1473.65 3564.76,1586.77 3563.4,1710.79 3540.23,1912.48 3510.25,2058.31 3459.82,2363.58 3296.28,2764.25 3116.39,3213.98 2937.86,3400.69 2906.51,3549.24 2793.4,3740.03 2207.09,3655.79 2185.58,3699.15 1776.73,3734.58 1166.18,3840.88 81.38,2777.88 "/>
     <path class="fil1" d="M2151.51 1251.22c14.64,20.55 7.59,77.38 32.64,140.37 6.63,16.66 11.78,18.76 18.74,30.34l5.79 12c-4.69,21.07 7.32,27.08 24,43.75 13.25,13.23 34.34,25.76 43.72,38.21 -59.22,-7.01 -106.49,-35.03 -146.83,-77.02 -18.93,-19.11 -35.93,-33.86 -37.19,-63.21 -23.81,-64.49 -9.54,-98.78 33.71,-122.3l2.96 7.12 15.4 -23.91 7.06 14.64z"/>
     <path class="fil1" d="M2051.84 1439.57c-14.71,-12.74 2.69,-6.43 -27.35,-16.05 -36.26,-19.52 -23.53,-29.41 -89.45,-72.16 -64.16,-40.55 -36.87,-27.52 -46.61,-51.85 -6.42,-16.04 -47.06,-31.83 -62.58,-46.3 6.8,-26.99 4.7,-27.78 31.25,-20.69 0.17,-0.11 11.44,-9.8 11.39,-9.64l3.3 0.38c60.32,10.48 141.41,54.06 155.46,106.35 2.75,10.23 4.14,23.36 5.82,36.93 12.38,30.38 19.31,53.92 18.78,73.03z"/>
     <path class="fil2" d="M1482.87 2716.89c11.54,-35.45 27.26,-26.55 -19.12,-94.31 -67.3,-98.33 -128.21,-159.46 -237.88,-215.5 -96.45,-49.29 -145.85,-54.61 -249.82,-68.78 -99.37,-13.55 -196.01,8.27 -226.66,-1.16 19.12,-30.76 188.7,-49.78 230.27,-47.98 82.5,3.58 202.55,29.66 276.2,66.62 91.68,46.01 133.36,83.28 208.39,148.01 31.06,26.8 63.75,49.84 67.87,93.67 3.82,40.68 -10.6,99.2 -49.25,119.42z"/>
     <path class="fil1" d="M2628.54 1437.11c7.74,19.61 11.63,47.32 18.11,68.99 7.07,23.66 -1.44,41.28 3.73,61.32 -1.01,0.77 -8.66,6.3 -9.5,7.97l-10.01 11.02c-3.75,4.86 -6.42,10.49 -10.62,14.03 -11.96,11.56 -20.35,5.05 -38.9,-1.77 -35.47,-95.31 -103.76,2.81 -188.31,-156.76 -48.51,-73.11 -104.44,-120.79 -117.08,-165.73l-9.03 -25.01c-0.29,-0.72 -0.84,-2.21 -1.3,-3.3 -11.26,63.17 55.34,224.33 53.95,246.47 -23.25,-11.12 -57.74,-30.89 -76.34,-47.25 -49.26,-43.32 -56.21,-134.76 -55.68,-197.8 0.8,-93.94 -72.09,-121.9 -129.61,-158.55 -36.56,-23.3 -26.28,-37.62 -49.55,-52.82 -6.29,8.25 -9.22,11.83 -14.87,20.83 -18.63,-3.4 -45.35,-6.25 -63.8,-16.99 -27.93,-17.29 -48.98,-31.34 -83.66,-47.3 -49.03,-22.57 -46.6,-12.66 -89.13,-11.7 0.56,-8.31 5.68,0.82 -11.32,-15.9l-5.19 -4.93c11.93,-12.58 4.58,-8.12 23.8,-10.9 9.19,-1.33 17.71,-2.3 27.23,-2.5 19.89,-0.42 42.51,0.72 62.33,2.54 73.58,6.74 127.68,40.15 137.59,25.62 116.75,44.34 57.85,38.77 133.31,92.98 15.61,11.22 35.22,27 48.22,43.32 58.68,73.64 1.1,26.25 87.86,57.13 32.93,11.72 37.95,53.42 71.24,80.32 149.53,43.84 195.01,213.35 184.36,99.49 -12.19,-28.84 -38.76,-39.62 -57.74,-58.6l2.55 -24.41c101.57,14.06 139.95,90.36 167.34,170.22z"/>
     <path class="fil2" d="M1948.2 1168.63c-2.02,-7.97 -27.84,-42.62 -35.47,-60.68 -11.56,-27.36 -5.66,-41.29 -31.88,-62.1 -35.87,-28.47 -114.7,-54.79 -138.37,-3.48 35.34,-7.57 56.16,-19.6 90.09,6.19 42.49,32.3 43.5,55.67 52.01,66.12 2.28,-21.61 -2.79,-20.22 4.29,-44.42 19.99,39.75 18.96,66.25 59.33,98.38zm-19.45 -129.65c14.24,45.19 33.19,87.24 75.78,115.12 62.53,40.92 61.04,45.6 95.01,105.14 5.75,-46.63 -31.86,-66.63 -45.59,-99.16 26.05,7.54 42.86,13.16 60.89,34.3 20.62,24.17 14.37,30.19 11.25,58.99 -32.17,25.63 -23.2,44.62 -26.41,82.53 0.14,79.07 -0.45,64.43 56.47,121.54 12.36,12.4 14.08,8.77 8.48,12.92 -25.49,-12.98 -63.7,-46.87 -77.71,-71.51 -22.69,-39.89 -14.68,0.89 -36.53,-30.77 -33.1,-47.96 -28.3,-76.06 -109.53,-115.96 -60.12,-29.53 -109.52,-27.16 -104.53,-62.34 45.61,-3.76 129.48,43.61 170.86,64.24 -44.81,-47.17 -84.39,-27.17 -124.66,-108.97 -8.55,-17.37 -21.6,-54.17 -36.72,-67.08 -27.69,-23.66 -59.45,-21.61 -79.67,7.08 34.91,2.01 91.54,27.84 103,62.7 -17.07,-7.36 -28.69,-34.55 -60.3,-48.31 -39.68,-17.28 -45.67,4.52 -81.22,-1.82 -30.04,-5.36 -37.66,-38.37 -25.68,-64.05 11.12,-23.83 39.97,-29.13 55.4,-53.36 44.18,-1.09 39.46,-10.56 87.61,11.65 33.68,15.53 53.5,28.17 83.77,47.15z"/>
     <path class="fil2" d="M2584.11 1599.85c-26.84,-11.37 -0.87,-2.61 -18.33,-18.97 -62.2,2.9 -120.53,-8.03 -162.43,-60.23 -37.65,-46.9 -40.42,-79.19 -89.53,-126.55 3.54,18.9 37.98,80.71 51.93,98.52 12.15,15.5 23.78,31.49 38.02,45.55 15.55,15.35 38.96,25.89 51.57,39.76 -42.39,-15.05 -117.54,-36.15 -152.15,-56.25 -38.8,-22.53 -65.33,-57.32 -98.06,-85.24 -6.72,-17.31 -17.71,-24.69 -24.76,-42.36 -4.68,-11.75 -13.15,-30.51 -15.81,-39.9 -5.95,-20.96 -15.27,-81.84 -18.41,-100.82 -6.11,-36.96 -34.33,-85.33 -67.62,-104.68 -19.29,-11.21 -41.51,-23.22 -57.02,-38.99 -18.58,-18.88 -19.09,-34.27 -28.68,-53.74l14.92 -21.01c21.99,14.2 15.93,31.34 49.79,52.82 22.44,14.24 45.55,25.98 67.64,40.82 95.11,63.88 45.44,162.63 80.61,259.71 18.51,51.09 53.51,71.97 103.6,95.77 1.29,-24.98 -54.68,-175.71 -43.61,-239.34 8.07,17.55 11.38,39.93 20.5,55.43 1.64,2.79 80.5,98 107.64,138.75 76.65,115.05 109.57,81.97 163,110.6 27.47,14.72 20.53,25.79 27.17,50.38z"/>
     <path class="fil2" d="M1263.3 2591.34c-34.22,-34.73 -181.01,-122.15 -184.33,-125.58 29.15,-11.58 148.82,55.04 180.86,74.79 53.67,33.09 85.32,60.93 114.6,113.42 99.86,179.08 32.89,264.58 31.48,329.17 -13.42,-8.1 -11.45,-10.02 -12.73,-29.88l-16.18 -99.63c-5.63,-21.19 -7.92,-44.91 -14.8,-64.18 -3.16,-8.85 -9.01,-20.5 -11.91,-29.65 -37.07,-116.97 -181.83,-180.11 -202.96,-210.46 34.7,-10.47 84.91,48.39 115.97,42z"/>
     <path class="fil1" d="M2031.64 2529.43c81.85,38.36 80.52,53.95 140.16,98.08 15.15,11.21 26.18,24.65 41.59,24.3l-26.32 -24.99c-4.6,-5.25 -4.53,-5.35 -7.01,-9.3 26.66,15.5 56.29,41.62 74.12,61.2 16.89,18.55 46.46,46.31 47.07,68.01 -19.83,3 -57.18,-6.4 -77.55,-8.97 -45.25,-15.73 -94.61,-38.44 -241.58,-99.31 14.23,12.27 -98.16,-42.41 -72.51,-30.11 33.89,16.25 227.57,125.57 241.4,144.13 -7.63,13.53 51.98,-1.94 33.8,0.56 66.11,28.59 55.01,50.68 91.63,97.87 23.98,30.9 92.78,172.82 92.28,210.4l-87.12 -102.99c-72.42,-148.23 -302.49,-256.7 -451.42,-247.39 -59.65,3.73 -69.46,27.45 -120.68,43.6 -16.99,5.36 -27.13,9.59 -34.44,24.1 -71.98,36.02 -132.25,116.05 -176.02,180.74 -28.34,41.89 -59.3,59.36 -87.73,94.36 -25.56,31.46 -31.73,128.68 -49.74,144.92 4.78,-0.35 -1.82,-0.03 7.77,-3.37l5.79 -1.86c0.92,-0.27 2.3,-0.58 3.26,-0.85 22.7,-6.44 30.26,-12 51.85,-24.19l13.28 -7.9c71.45,-50.63 61.72,-81.83 92.41,-89.57 -4.77,70.42 -76.1,122.46 -141.77,140.03 -68.44,18.31 -26,7.72 -45.78,35.36 -8.76,12.23 -19.5,12.79 -27.66,21.25 -0.86,0.73 -2.06,0.51 -2.87,1.82l-24.37 9.83c-151.22,56.07 -309.91,81.23 -475.47,51.8 -142.54,-25.34 -289.9,-87.64 -392.31,-188.35l-80.46 -94.58 7.58 -15.16c13.69,33.15 83.03,99.22 117.9,125.69 139.33,105.77 213.25,121.05 387.45,138.03 25.72,2.51 71.98,3.94 97.51,0.83 60.17,-7.33 55.15,-17.79 74.07,-32.11 -10.67,-6.3 -5.34,4.35 -2.64,-12.52 -48.35,-4.89 -66.22,-12.72 -112.38,-27.59 17.41,-11.35 -4.15,-11.83 29.81,-5.38 27.81,5.28 43.56,24.44 67.87,-0.66 17.96,-18.54 46.05,-44.62 69.8,-39.52 -42.07,-5.84 -55.34,20.28 -196.75,-25.49 -121.35,-39.28 -99.65,-11.49 -193.96,-25.2 -93.51,-13.6 -223.62,-70.51 -283.61,-144.86 -26.55,-32.9 -33.61,-34.47 -30.05,-63.78l8.47 6.34c26.87,22.06 63.14,63.43 84.98,76.3 225.95,133.13 255.04,65.66 410.7,117.84 90.94,30.48 97.05,36.24 182.77,44.25 52.51,4.91 -11.24,15.64 86.39,-3.15 76.81,-14.78 151.75,-47.37 202.57,-102.28l-70 -51.3c-0.4,-1.06 -0.89,-3.69 -1.5,-3.04 -0.6,0.63 -1.18,-2.38 -1.55,-2.96l-34.17 -47.56c-45.43,-70.95 -40.53,-76.37 -108.07,-163.33 -53.16,-68.45 -110.34,-134.38 -190.03,-196.24 -166.59,-129.31 -302.03,-138.48 -484.48,-60.78 -43.16,18.38 -11.42,17.48 -58.45,11.11 -1.19,-0.16 -5.59,-0.56 -7.09,-0.49 9.33,-23.74 3,-11.8 19.45,-23.15 9.59,-6.62 11.05,-8.35 20.51,-15.99 13.51,-10.91 27.17,-20.36 38.9,-38.14 20.54,-24.23 47.28,-47.44 68.14,-60.89 13.99,-9.02 25.98,-16.65 37.75,-24.63 13.79,-9.34 22.1,-17.28 36.41,-25.71l68.36 -56.16c9.03,-6.49 14.74,-8.97 24.4,-15.44l73.47 -45.32c35.77,-19.48 209.53,-41.35 264.44,-37.06 92.09,7.21 191.09,28.45 280.73,67.49 64.9,28.26 187.06,106.59 213.32,112.09 -1.52,-25.8 -14.13,-15.79 -24.04,-29.02l12.24 -28.54c58.59,37.63 108.67,43.8 127.26,103.18 7.06,22.54 5.67,51.08 14.99,71.02 37.89,81.12 148.17,37.66 202.26,30.33 47.97,-6.5 100.89,-10.89 154.64,0.34z"/>
     <path class="fil2" d="M2223.7 2737.76c3.41,15.23 46.89,51.76 60.28,69.63 45.03,60.07 93.03,181.53 84.75,253.9 -54.35,-67.99 -81.46,-223.67 -218.84,-303.91 -17.18,-22.51 -127.56,-80.63 -158.98,-96.98 -27.53,-14.32 -56.83,-34.34 -83.18,-46.9 -24.98,-11.91 -83.71,-19.07 -97.42,-31.23 94.99,-1.5 237.91,54.23 321.55,102.55 31.72,18.32 57.32,40.49 91.84,52.95z"/>
     <path class="fil1" d="M2090.1 1960.15l-1.63 0.46c1.23,11.41 -1.7,20.03 7.08,23.2 34.32,12.41 32.13,0.54 62.89,24.85l139.31 133.88c-0.09,0.14 -0.49,0.71 -0.7,1.08 -26.95,14.28 -98.43,-1.84 -123.1,-18.59 -77.76,-52.82 -137.32,-159.99 -278.75,-188.86 -105.12,-21.46 -203.22,12.88 -320.42,-138.32 -17.59,-22.69 -26.79,-68.37 -25.64,-97.52l2.78 -4.28c13.74,12.68 29.72,31.5 39.1,46.63 13.39,21.6 18.83,30.63 36.01,50.81 72.59,85.27 86.36,91.68 199.43,90.35 15.5,-0.18 18.03,-4.09 34.46,-3.54 51.17,1.72 95.33,34.34 147.91,47.21 -0.84,-29.51 -34.48,-22.32 -18.41,-54.98 13.29,5.58 49.48,25.82 59.92,34.42 30.34,25 36.84,30.74 39.76,53.19z"/>
     <path class="fil2" d="M2090.69 1960.35c-3.66,-28.35 -88.68,-83.01 -99.98,-87.2 -16.26,32 18.24,25.75 18.12,54.12 -50.49,-9.99 -95.44,-30.03 -150.22,-31.76 -39.46,-1.25 -81.52,13.03 -144.06,-12.31 -82.89,-33.59 -162.76,-185.68 -163.49,-186.35 0.15,-41.21 -13.96,-76.24 6.52,-120.02 12.42,27.93 2.32,81.17 55.91,159.51 115.07,168.22 248.99,92.24 356.1,121.16 45.82,12.37 135.99,71.49 153.29,116.9l-32.2 -14.04z"/>
     <path class="fil2" d="M922.14 4015.22c26.38,6.4 83.79,24.51 108.8,13.34 -48.77,-13.92 -83.38,-9.25 -119.2,-50.98 13.24,-6.14 29.39,1.22 45.17,4.91 15.46,3.61 30.43,5.08 46.21,6.3 28.97,2.25 59.16,6 85.08,-2.14 -53.48,-3.8 -87.94,0.46 -141.03,-22.96 -36.2,-15.97 -80.61,-57.19 -88.56,-94.78 65.26,39.98 68.42,65.87 158.26,90.66 130.71,36.06 188.25,-9.3 295.38,-82.01 46.9,-31.83 110.38,-93.29 122.59,-98.99 -31.74,74.68 -154.05,170.08 -223.33,203.61 -42.66,20.64 -94.89,34.81 -133.63,54.89 -48.05,24.92 -141.93,12.35 -155.76,-21.84z"/>
     <path class="fil2" d="M1085.05 3182.32l-3.61 0.39c-84.93,-4.38 -57.46,20.76 -197.37,-24.18 -136.31,-43.78 -198.35,16.95 -394.38,-99.29 -38.23,-22.67 -110.65,-78.53 -113.79,-125.57 54.61,42.82 62.38,69.71 136.58,106.62 167.75,83.44 163.77,53.01 283.58,71.44 66.63,10.25 134.64,41.62 201.18,56.08 21.03,4.57 76.95,5.44 87.8,14.5z"/>
     <path class="fil2" d="M3150.49 2452.99c-2.46,-10.07 17.33,-195.3 21.43,-206.7 -20.81,45.28 -79.65,341.08 -142.11,361.27 -3.26,-12.83 39.97,-114.12 44.98,-129.09 31.97,-95.55 43.44,-193.52 88.84,-268.64 17.64,-29.19 54.66,-69.84 85.37,-77.18 -16.22,19.3 -40.37,34.14 -46.61,62.18 -5.43,24.42 -8.17,59.07 -12.16,85.17 -4.48,29.29 -23.73,161.97 -39.75,172.99z"/>
     <path class="fil2" d="M1281.52 3015.39l-1.69 15.09c-86.61,-44.76 -86.01,-72.92 -240.24,-120.83 -63.62,-19.76 -232.17,-47.01 -269.14,-95.95 48.76,12.39 93.51,31.09 144.96,42.32 44.27,9.66 93.66,15.54 137.01,28.08 61.92,17.91 136.63,45.38 187.01,87.47 15.62,13.05 26.42,31.78 42.08,43.81z"/>
     <path class="fil1" d="M3122.97 1463.03c-40.78,20.84 -64.92,63.3 -78.93,121.22 -19.43,-25.66 -23.59,-39.49 -64.8,-43.36l-10.36 16.02c79.49,-13.36 40.89,44.3 63.75,84.88 5.08,8.33 38.34,32.36 48.04,43.46 25.01,28.62 6.97,14.33 22.87,29.21 7.35,-35.38 -28.97,-88.15 -26.23,-129.69 9.39,-142.22 82.14,-83.31 118,-93.37 30.15,8.76 -9.9,-8.21 9.33,91.23 6.92,35.79 13.01,58.65 19.28,89.83 9.61,47.78 10.79,39.21 13.25,90.11 1.38,28.73 5.14,74.39 -0.52,101.27 -74.05,-6.71 -152.91,12.16 -221.96,32.37 -59.69,-30.47 -119.18,-33.14 -111.29,-107.7 6.99,-66.08 20.35,-112.97 7.03,-177.77 -4.12,-20.03 -23.84,-142.21 39.04,-160 23.61,-6.68 136.74,-7.56 163.87,-8.61 6.83,1.26 -1.99,-8.66 25.23,7.9 3.46,2.1 4.47,4.93 15,9.73 -12.27,1.27 -33.98,-9.35 -30.6,3.27z"/>
     <path class="fil2" d="M3059.81 1624.71c-23.66,-1.48 -27.2,14.88 -5.47,25.11 11.13,-12.11 11.38,-7.54 5.47,-25.11zm133.39 -132.65c-22.17,5.84 -56.94,-12.68 -80.74,3.85 -19.53,13.56 -27.44,67.16 -28.91,90.6 -2.53,40.27 44.35,124.17 20.63,151.55 -11.11,-10.51 -10.26,-35.11 -24.91,-51.74 -11.81,-13.42 -42.95,-35.05 -48.09,-43.45 -5.94,-9.71 -6.56,-41.19 -12.37,-58.32 -11.38,-33.54 -22.06,-25.15 -50.66,-27.48l4.76 -21.81c38.53,-0.01 49.04,13.62 69.82,38.83 12.47,-51.39 33.18,-86.43 78.57,-110.16l71.9 28.14z"/>
     <path class="fil2" d="M393.68 2552.92c-3.21,27.76 -56.79,65.3 -54.47,98.58 14.27,-21.21 37.24,-57.33 60.13,-68.74l-12.4 41.12c-6.55,12.73 -13.39,25.37 -20.05,38.01 -39.54,75.01 -55.55,136.12 -57.9,221.08 -0.52,18.99 2.71,30.63 -10.4,39.62 -31.39,-37.64 -20.39,-142.43 -6.91,-192.93 9.66,-36.18 68.87,-167.2 101.99,-176.74z"/>
     <path class="fil2" d="M3348.7 1975.55c-14.6,-37.08 -11.32,-76.88 -20.28,-116.07 -14.7,-64.32 -63.74,-317.97 -60.87,-358.76 35.63,17.95 37.09,72.14 44.71,108.69 7.74,37.15 17.59,80.4 22.77,117.72 5.95,42.86 28.73,218.44 13.67,248.43z"/>
     <path class="fil2" d="M1260.34 4164.52c10.05,-19 67.32,-59.06 87.97,-77.41 30.89,-27.45 61.09,-56.11 87.32,-88.25 72.15,-88.43 97.1,-143.11 101.33,-257.23 23.2,26.38 8.75,108.37 -2.62,141.79 -17.18,50.51 -40.05,88.99 -72.87,129.82 -33.55,41.74 -150.22,143.03 -201.12,151.29z"/>
     <path class="fil2" d="M2832.4 3077.91c16.94,-23.69 137.94,-99.81 208.76,-243.47 21.35,-43.3 27.33,-88.07 44.64,-128.71 19.14,49.85 -45.92,196.95 -79.27,241.97 -33.96,45.84 -118.74,127.46 -174.13,130.21z"/>
     <path class="fil2" d="M-124.11 3106.54c-21.59,-5.97 -23.81,-29.86 -30.63,-53.6 -20.36,-70.79 -25,-113.86 -21.14,-190.77 3.75,-74.86 28.37,-226.59 55.87,-294.54 -8.08,32.6 -11.38,102.3 -16.92,141.72 -10.19,72.49 -21.53,205.01 -11.28,275.54 5.27,36.28 23.89,90.49 24.1,121.66z"/>
     <path class="fil2" d="M1354.99 3224.92l-170.99 26.89c-29.07,4.33 -59.08,8.61 -88.43,9.15 -17.44,0.32 -82.21,-3.8 -90.06,-2.22l-88.98 -28.03c14.46,-4.15 18.65,0.1 36.76,4.6 12.35,3.07 24.39,5.04 36.84,7.81 41.72,11.86 331.18,-12.71 367.67,-33.89 44.56,-14.06 57.72,-15.27 96.59,-46.99 20.82,-16.99 71.8,-79.73 75.25,-81.79 3.2,40.47 -37.6,79.71 -68.34,102.22 -39.1,28.63 -68.3,24.21 -106.3,42.24z"/>
     <path class="fil1" d="M1850.56 914.26c-29.21,3.86 -25.93,-29.82 -70.08,3.56 -21.81,16.49 -37.56,25.47 -50.65,55.35 -28.73,1.63 -46.2,7.94 -78.45,7.96 -29.17,0.02 -58.6,-0.02 -84.4,2.91 -19.27,2.19 -64.41,4.58 -76.21,12.42l-16.53 10.23c-1.16,0.75 -107.92,31.56 -123.25,43.06 -24.29,18.21 -47.96,24.2 -64.82,40.61 -30.53,29.7 -68.87,64.63 -91.78,116.25 -11.27,-10.25 -19.63,17.89 -22.38,14.35 -21.95,41.69 -55.15,80.34 -80.01,124 -26.44,46.43 -58.5,107.75 -79.16,158.42 -7.5,-10.24 -14.86,-18.19 -15.74,-33.55l4.13 -84.65c17.95,-140.5 62.05,-258.03 170.68,-348.41l140.21 -102.77c62.79,-40.12 129.69,-20.89 158.55,-33.26l-75.16 -3.53c2.66,-9.35 53.88,-22.67 89.07,-21.97 17.15,0.34 40.52,10.13 58.13,12.53 39.49,5.4 74.29,4.26 110.97,6.68 73.97,4.89 166.15,-45.94 196.9,19.82z"/>
     <path class="fil2" d="M2158.6 3006.03c-40.36,-0.77 -142.64,-51.37 -181.87,-72.26 -26.06,-13.87 -74.04,-54.67 -102.26,-76.75 -18.94,-14.83 -21.73,-10.45 -28.41,-30.12 60.24,17.5 174.89,96.05 235.33,135.22 27.15,17.6 71.96,36.22 77.21,43.91z"/>
     <path class="fil2" d="M275.36 3763.2c-30.77,-12.49 -174.18,-179.04 -97.99,-321.21 12.47,39.8 -10.4,96.43 20.76,176.96 12.01,31.05 56.59,121.69 77.23,144.25z"/>
     <path class="fil2" d="M1377.82 2910.43c-28.27,-44.29 -20.65,-73.39 -76.72,-164.94 -75.36,-123.06 -103.8,-116.17 -119.57,-142.48 43.56,-7.15 116.1,94.1 138.11,126.11 26.58,38.66 55.15,132.79 58.18,181.32z"/>
     <path class="fil2" d="M3412.77 2083.18c10.27,-2.6 3.9,-2.18 13.61,2.14 -44.02,43.42 -67.55,344.81 -100.43,368.03 -5.95,-26.07 21.99,-152.38 28.83,-187.03 9.67,-48.99 28.71,-147.02 57.98,-183.14z"/>
     <path class="fil2" d="M1172 1220.95c26.56,-50.04 80.52,-124.46 126.49,-155.14 45.6,-30.44 115.34,-66.92 175.75,-59.13 -32.16,22.25 -140.1,23.83 -239.4,144.67 -19.82,24.11 -45.55,65.19 -62.48,83.14l-0.36 -13.55z"/>
     <path class="fil2" d="M2639.42 2904.64c10.93,-18.16 160.55,-118.35 192.77,-151.6 12.7,-13.1 43.86,-53.92 58.25,-56.72 -24.27,74.12 -200.59,198.18 -251.02,208.32z"/>
     <path class="fil2" d="M1363.73 972.63c26.2,-25.42 67.67,-44.4 103.41,-54.35 62.65,-17.44 72.45,-2.89 133.67,3.06 -13.74,6.99 -92.84,15.06 -117.9,21.05 -26.66,6.37 -98.49,28.17 -119.19,30.24z"/>
     <path class="fil2" d="M1233.93 2178.03l-47.99 -6.67c-1.68,-5.26 -6.15,-97.07 -6.21,-110.57 -0.21,-46.32 -3.52,-65.91 -9.72,-110.17 27.67,57.98 25.22,152.53 63.93,227.41z"/>
     <path class="fil2" d="M2011.78 1416.06c-0.86,-37.2 -1.25,-83.33 -28.4,-110.68 -19.74,-19.88 -91.86,-56.47 -119.62,-67.71l-6.93 -5.36c44.54,2.52 123.56,37.61 147.31,72.74 17.41,25.75 17.55,37.28 21.71,68.21 5.54,41.25 16.39,38.82 25.99,66.31l-40.06 -23.5z"/>
     <path class="fil2" d="M427.83 3895.05c7.15,-15.14 32.49,-2.05 51.66,-5.67 56.95,-1.01 94.08,11.6 145.37,34.77 27.94,12.62 90.45,53.18 89.88,84.58 -18.45,-10.81 -32.46,-30.81 -49.63,-44.15 -20.11,-15.62 -46.12,-29.52 -69.85,-39.11 -57.45,-23.21 -108.16,-22.19 -167.43,-30.42z"/>
     <path class="fil2" d="M1358.73 2949.46c-15.48,-26.87 -45.27,-195.06 -143.84,-288.73 -17.85,-16.96 -18.08,-22.12 -31.23,-37.17 98.67,75.19 165.26,197.98 175.07,325.9z"/>
     <path class="fil2" d="M2409.21 3527.59c-17.97,3.48 -69.25,-11.94 -94.62,-13.76 -89.68,-6.45 -200.47,34.7 -241.25,30.97 19.63,-14.37 127.45,-32.25 158.75,-38.2 40.76,-7.76 147.67,-4.56 177.12,20.99z"/>
     <path class="fil2" d="M2452.87 3132.17c23.05,-7.56 164.18,47.04 243.07,-8.55 7.87,22.03 -22.54,24.06 -42.89,28.52 -21.25,4.66 -36.61,10.66 -58.6,11.66 -42.89,1.95 -106.87,-6.18 -141.57,-31.63z"/>
     <path class="fil2" d="M178.42 3670.98c-14.23,-8.77 -48.94,-73.19 -53.05,-89.99 -8.76,-35.84 -14.71,-88.26 19.5,-114.6 3.69,34.9 -19.82,52.7 -0.83,112.04 6.87,21.47 32.76,76.9 34.38,92.56z"/>
     <path class="fil2" d="M1705.98 3780.39c-10.9,52.54 -30.2,83.61 -66.75,120 18.21,-46.85 25.95,-84.64 29.05,-134.33l37.7 14.33z"/>
     <path class="fil2" d="M1017.2 3289.84l15.33 -12.85c46.47,3.41 154.49,-18.35 185.07,-10.33 -3.75,16.77 -3.52,14.57 -10.44,18.84l1.36 -13.1c-33.1,13.93 -156.01,27.75 -191.32,17.44z"/>
     <path class="fil2" d="M3131.57 1741.46c-24.43,-24.35 -11.26,-133.19 5,-162.97 7.8,15.52 8.5,148.1 -5,162.97z"/>
     <path class="fil2" d="M23 3355.58c-28.84,-15.84 -47.65,-180.95 -44.84,-217.9 5.55,8.9 45.57,205.12 44.84,217.9z"/>
     <path class="fil2" d="M1448.14 973.19c48.35,-35.09 143.85,-20.71 176.3,-44.37 -10.42,27.51 -54.79,26.97 -81.42,32.16 -20.59,4.01 -78.72,17.15 -94.88,12.21z"/>
     <path class="fil2" d="M1846.18 1718.83c-7.89,-5.94 -21.24,-41.86 -28.07,-55.29 -10.64,-20.91 -34.67,-34.68 -45.63,-53.16 45.94,12.27 73.26,62.96 73.7,108.45z"/>
     <path class="fil2" d="M3361.25 1530.13c-35.86,-38.98 -26.65,-64.99 -99.47,-49.42 17.58,-45.81 107.05,4.54 99.47,49.42z"/>
     <path class="fil2" d="M2339.35 1962.9l63.57 -83.44c-3.23,34.45 -26.19,83.14 -63.57,83.44z"/>
     <path class="fil2" d="M2094.43 1700.19c2.29,-40.89 0.33,-37.47 -6.98,-74.63l33.27 11.21c-6.03,19.93 -12.92,52.16 -26.29,63.42z"/>
     <path class="fil2" d="M2298.74 1923.08l-25.38 -4.81c10.89,-24.3 30.46,-33.58 44.32,-56.65l-18.93 61.46z"/>
     <path class="fil2" d="M664.85 1843.41c-14.23,-11.71 -17.47,-21.5 -10.03,-39.02 19.02,10.93 18.71,18.75 10.03,39.02z"/>
     <path class="fil1" d="M600.76 2132.6c-7.96,18.23 -9.29,14.03 -32.03,16.89 -3.8,0.48 -13.31,1.52 -16.58,2.62 -14.1,4.73 -16.13,-5.39 -7.46,7.17 -26.66,9.91 -58.77,10.88 -87.63,16.67 -72.92,14.62 -143.63,54.85 -184.08,116.06 -10.7,16.2 -19.04,31.28 -17.52,45.82 11.13,-2.86 96.03,-69.2 111.44,-79.01l66.12 -31.7c36.82,-13.93 134.42,-13.8 171.02,-2.27 -58.12,11.33 -87.53,7.62 -134.87,37.35 -149.45,88.9 76.74,-43.83 28.34,12.44 60.32,-14.14 56.53,-46.85 103.69,-9.51 -1.34,0.69 -1.46,5.37 -3.34,-2.77 -3.25,-13.97 -10.94,7.11 1.34,-5.74 32.42,-0.57 82.9,-0.28 115.38,5.61 -12.07,15.67 -34.95,29.53 -52.95,39.96 -38.67,22.42 -74.63,72.6 -118.44,79.09 -4.78,10.07 -3,4.55 -16.05,9.52 -96.75,36.87 -260.23,55.63 -325.51,139.62 -53.58,68.94 -94.81,258.77 -100.14,347.04 -2.37,39.24 -2.61,77.69 -7.97,118.27 -14.23,-12.28 -13.91,-19.19 -25.52,-47.3 -70.35,-170.46 22.21,-394.84 12.1,-413.95 -11.03,-20.84 -32.93,-2.42 -42.04,13.07 -43.79,74.41 -51.72,236.38 -32.66,329.15 13.72,66.75 34.97,126.84 68.31,183.85 6.52,11.15 6.51,14.96 13.58,25.08 19.95,28.56 46.61,60.78 70,89.79 38.56,47.83 111.66,143 162.77,166.76 -23.87,44.16 -19.57,91.17 3.81,134.82 12.04,22.47 15.04,33.77 33.63,54.79 14.13,15.98 42.22,35.95 51.5,49.42l-0.74 17.79 -24.18 5.01 15.35 13.8c-21.66,-9.34 -5.03,-4.6 -14.72,3.67 33.39,35.61 62.11,97.99 130.06,133.9l55.9 29.57c11.37,10.01 2.09,-3.27 9.17,11.19 -121.59,-51.01 -221.4,-87.87 -280.56,-209.54l-45.57 -105.76c-24.35,-83.32 -17.42,-62.89 -51.68,-127.58l-7.56 -14.09c-38.67,-60.26 -53.56,4.41 -124.35,47.08 -82.98,50.02 -92.65,56.79 -130.32,-13.28 -16.92,-31.47 -4.69,-16.67 -1.86,-31.33l-97.51 -237.28c-40.8,-163.01 -39.99,-278.42 -27.46,-441.13l-0.38 -19.59c-0.22,-1.35 -0.78,-3.04 -1,-4.15 -0.22,-1.13 -0.64,-2.85 -1.16,-4.21 -11.21,42.34 -12.98,96.87 -17.23,141.88 -4.81,50.86 -0.59,85.48 -2.35,131.21 -14.95,-18.84 -22.2,-113.46 -26.17,-145.03 -3.25,-25.84 -10.03,-48.53 -14.79,-71.26 -8.99,-42.94 -10.29,-33.71 9.23,-74.46 26.06,-54.4 49.05,-106.84 71,-167.58 10.74,-29.72 21.52,-52.24 43.18,-70.24 29.46,-24.48 7.59,-42.6 18.37,-74.41l26.73 6.79c14.06,26.36 12.44,-2.57 7.38,28.16 8.61,-15.51 20.95,-36.25 32.83,-48 8.33,10.65 11.71,17.93 13.89,29.94 32.16,-0.51 9.69,-11.05 55.61,-18.42 51.26,-8.23 25.79,11.16 50.45,23.94 6.14,-2.81 7.62,4.63 20.08,-26.51l5.71 6.67c1.51,1.84 5.97,7.58 7.21,9 11.17,12.76 -5.07,-0.2 13.71,12.95 5.81,-8.34 10.74,-29.51 20.13,-33.75l6.44 -1c10.35,-0.25 19.42,7.07 32.24,3.56 -6.98,0.61 -13.21,7.77 -21.4,-5.18 -2.9,-2.68 -3.37,-10.51 -10.26,-15.82l32.91 -63.7c20.02,7.45 2.26,2.63 19.47,-7.59l7.3 -11.21c19.02,-10.36 8.27,-20.42 33.05,-13.71 4.14,-30.75 4.72,-17.75 34.51,-36.46 20.55,8.55 6.63,8.27 25.1,22.6 4.67,-39.21 16.69,-34.86 43.27,-43.73 43.68,-14.57 12.78,-26.4 42.4,-12.33 5.45,-27.36 16.56,23.97 16.05,-1.88 39.29,-28.67 67.55,-4.34 67.65,-4.32l3.3 -8.58c0.23,-0.69 0.71,-2.12 0.95,-2.89 0.25,-0.77 0.65,-2.11 0.9,-2.92 0.37,-1.2 1.4,-4.69 1.73,-5.95 2.49,-9.48 -10.89,-11.42 -12.05,-23.71 -1.81,-19.3 3.97,-26.13 6.45,-45.97 47.98,26.57 14.92,92.17 73.37,93.49 -20.92,-14.29 -17.61,-7.31 -10.57,-35.72 -2.53,-13.73 -27.09,-18.41 -28,-31.85 -2.18,-32.53 1.68,-51.3 -1.3,-79.59 18.07,11.61 25.56,26.75 33.39,41.38 21.89,40.95 23.64,28.82 40.08,86.7 4.53,15.93 8.45,32.17 18.37,42.82z"/>
     <path class="fil3" d="M2681.42 3245.98c-104.25,-48.27 -154.35,-21.75 -222.52,33.58 -98.41,79.87 -112.59,54.74 -158.72,84.62 33.09,0.52 133.02,-49.68 111.26,-15.23l-41.39 22.85c-47.2,18.29 -131.57,39.98 -182.36,43.88 -174.99,13.42 -396.31,-106.53 -508.27,-241.51 -31.32,-37.75 -44.44,-64.65 -59.77,-106.04 -10.13,-27.34 -27.66,-99.84 -6.42,-131.46 25.34,49.98 -25.89,142.13 180.94,292.83 58.43,42.57 123.68,71.91 198.89,92.02 36.14,9.66 162.7,6.2 192.09,-4.68 -49.85,-6.93 -75.29,-6.57 -129.3,-20.56 -44.52,-11.53 -98.11,-24.98 -140.04,-42.93 42.93,-15.58 103.85,11.73 117.11,12.3 17.72,0.76 0.11,1.77 15.56,-3.41 -12.85,-18.86 -120.32,-51.8 -165.65,-88.8 8.9,-2.54 -0.98,-2.71 10.43,-0.78 14.13,2.4 52.11,28.1 97.09,39.2 121.86,30.07 299.68,56.57 421.94,25.9 31.16,-7.82 57.89,-21.94 87.45,-32.55 44.65,-16.02 102.13,-22.12 146.65,3.55 10.95,6.32 11.22,5.86 20.27,14.7 10.13,9.89 9.8,10.72 14.74,22.53z"/>
     <path class="fil3" d="M3273.67 2435.34c-10.3,-32 62.44,-228.67 68.24,-280.44 -41.65,59.2 -79.69,277.99 -118.73,369.32 -10.27,24.02 -27.8,63.63 -34.43,88.05 -10.49,38.71 16.45,128.92 -21.73,258.21 -40.15,135.95 -96.7,199.93 -180.27,284.89 -100.3,101.97 -106.69,96.22 -209.18,144.59 -38.39,18.12 -18.24,15.61 -37.67,11.88 17.08,-23.36 26.2,-27.44 47.8,-40.49 52.58,-31.77 109.45,-76.57 153.3,-120.83 33.73,-34.05 59.36,-65.61 86.74,-110.05 23.09,-37.47 51.82,-109.38 69.05,-133.24 -40.49,94.79 -123.85,162.49 -211.93,203.44 -22.21,10.32 -64.06,32.24 -95.77,27.61 30.12,-42.59 97.3,-45.34 203.67,-158.6 143.57,-152.86 95.05,-261.42 187.17,-432.48 38.4,-71.29 36.3,-65.48 51.17,-147.21 12.74,-70.02 56.11,-271.92 130.25,-256.63 -22.31,95.38 -39.36,205.86 -87.69,291.98z"/>
     <path class="fil3" d="M1485.38 2710.72c9.68,-30.44 29.48,-23.21 -18.94,-94.16 -64.52,-94.54 -121.87,-156.53 -237.1,-215.58 -221.6,-113.57 -436.69,-58.76 -475.43,-70.73 12.07,-19.29 72.83,-27.57 106.85,-35.95 119.5,-29.42 294.55,3.17 398.56,55.62 94.18,47.5 135.04,85.22 207.71,148.17 30.59,26.49 63.53,49.94 67.55,93.6 4.2,45.57 -13.04,98.61 -49.21,119.03z"/>
     <path class="fil3" d="M1407.9 2976.34c-18.06,-10.81 -9.35,-30.08 -15.13,-60.65 -7.87,-41.61 -29.25,-153.81 -48.71,-189.94 -50.87,-94.46 -182.13,-166.72 -193.34,-182.85 15.08,-4.5 41.11,11.39 58.35,19.28 10.47,4.79 19.08,8.85 29.29,13.9 23.43,11.61 19.58,10.8 27.87,8.79l-131.53 -96.03c-15.81,-9.2 -40.08,-17.1 -52.06,-29.51 31.8,-12.41 231.61,75.79 292.8,185.66 18.11,32.52 34.93,69.15 45.54,105.59 10.57,36.32 11.84,87.27 7.52,125.18 -3.85,33.76 -20.08,75.23 -20.59,100.58z"/>
     <path class="fil3" d="M2488.09 3457.46c14.05,-2.18 14.17,5.62 24.02,-6.48 -22.92,-30.93 -46.02,-27.97 -47.39,-48.46 28.89,-4.63 85.52,32.97 112.71,47.61l-28.66 -31.54c68.55,31.06 67.69,88.92 173.4,66.45 81.06,-17.23 86.1,-70.71 138.5,-102.89 -6.32,153.43 -138.67,245.56 -277.34,157.24 -30.53,-19.45 -85.05,-59.48 -95.24,-81.94z"/>
     <path class="fil3" d="M3150.48 2450.55c-2.36,-9.57 18.03,-195.99 21.79,-206.3 -29.67,63.89 -49.27,237.96 -126.72,347.56 -12.2,17.26 -5.33,9.37 -15.83,12.8 -3.39,-13.8 14.96,-47.05 20.38,-60.88 28.48,-72.77 45.98,-132.9 64.89,-209.45 17.64,-71.43 52.05,-163.75 123.59,-199.16 9.7,-4.8 -2.02,-1.05 10.87,-4.17 -58.91,69.42 -38.93,17.79 -58.95,146.98 -4.92,31.76 -20.84,159.52 -40.01,172.61z"/>
     <path class="fil1" d="M731.83 1781.86c4.18,17.87 -38.16,150.22 -47.25,173.18 -5.78,-15.77 -15.98,-28.04 -23.19,-47.12l-21.36 -48.17c-40.15,-94.75 1.54,-85.31 13.9,-93.62l1.68 -64.88c11.34,16.12 14.31,46.18 18.46,57.1 7.37,19.39 -3.3,7.17 14.95,19.23 11.9,-52.96 -5.4,-102.84 2.86,-150.53 25.31,9.12 18.81,122.6 39.94,154.79z"/>
     <path class="fil4" d="M1283.75 3008.32l-1.89 15.36c-96.24,-55.47 -100.28,-77.81 -239.45,-121.34 -66.84,-20.9 -230.25,-46.02 -268.48,-96.3 48.51,12.39 94.04,31.39 144.62,42.53 44.58,9.82 92.9,15.53 136.72,28.3 62.65,18.25 136.78,45.95 186.52,87.68 18.06,15.15 26.54,32.03 41.97,43.77z"/>
     <path class="fil1" d="M1578.06 1883.66c56.05,35.5 42.13,72.7 54.77,106.81l9.05 66.5c5.55,13.77 5.43,17.94 11.77,28.83 11.75,20.18 3.34,2.42 -3.45,32.43l-19.78 -6.75c-4.13,-6.79 -11.2,-8.34 -17.66,-15.84l-20.82 -59.41c-6.66,-17.39 5.13,35.07 -13.74,22.22 0.08,28.19 -7.06,-75.78 -10.79,-52.68 -18.18,-7.71 -33.25,-37.77 -40.57,-52.72 -8.05,-16.45 -8.67,-15.39 -12.98,-30.41 -4.75,-16.57 -2.99,3.67 -17.16,-8.38 -15.05,7.82 10.84,61.32 5.79,76.35 1.06,-15.2 -16.58,-63.76 -38.18,-87.4l-10.83 -20.67c-3.96,-16.26 -5.05,-61.62 21.49,-60.01 17.61,1.07 30.88,-24.26 67.92,12.06 15.83,15.53 12.42,42.4 35.17,49.07z"/>
     <path class="fil4" d="M3349.26 1974.33l-64.43 -351.13c-4.66,-32.46 -17.92,-91.28 -15.66,-123.03 33.33,16.38 36.58,70.62 44.42,108.58 14.18,68.69 58.84,319.8 35.67,365.58z"/>
     <path class="fil5" d="M1707.39 3772.91c-18.96,59.78 -28.29,79.92 -68.37,119.63 19.01,-48.73 25.85,-86.44 29.31,-134.12l39.06 14.49z"/>
     <line class="fil6 str1" x1="-3780.01" y1="2470.31" x2="-2419.9" y2= "1738.04" />
     <path class="fil2" d="M1668.28 3766.06c-3.1,49.68 -10.84,87.47 -29.05,134.33 36.55,-36.39 55.85,-67.45 66.75,-120l-37.7 -14.33zm-766.3 -362.39l0.09 -0.16c-124.49,-5.06 -223.07,-38.16 -332.28,-97.8 -86.64,-47.31 -175.53,-109.05 -234.85,-188.35 -99.73,-133.34 -163.18,-422.58 -53.58,-565.17 -67.42,51.39 -77.41,251.16 -75.18,332.92 2.35,86.15 41.03,208.77 93.3,275.84 99.27,127.39 282.6,222.55 443.45,239.92 16.5,1.78 154.68,19.14 159.04,2.81zm910.46 412.18c-27.12,79.76 -48.03,102.83 -112.26,151.44 -63.53,48.08 -35.38,108.23 -139.71,101.92 -80.92,92.12 -116.84,144.96 -209.92,217.61 -32.93,25.7 -61.31,16.4 -96.01,30.85 -0.57,13.57 -1.47,19.2 -6.14,27.34 -1.63,2.85 -3.73,6 -6.44,9.92 7.7,2.37 -145.35,-37.62 -150.78,-35.6 -41.19,15.32 -41.18,27.93 -9.6,35.95l-17.39 4.09c-696.12,-270.81 -1286.66,-916.13 -1338.1,-1674.99l0 0c12.27,17.85 20.2,18.85 19.14,-4.5l-0.01 0c1.44,19.57 13.5,37.1 20.72,93.99 3.71,29.2 10.91,125.64 26.42,145.2 3.08,-89.79 -4.28,-184.69 19.08,-273.64 13.88,34.85 -42.84,338.86 67.94,566.19 10.69,21.95 32.79,90.66 50.77,125.09 16.08,30.79 12.35,10.07 0.9,30.77 42.93,52.79 27.45,98.52 114.11,45.48 23.36,-14.29 38.89,-22.72 61.52,-40.7 16.78,-13.33 40.08,-40.13 57.87,-48.09 28.92,5.3 37.84,37.38 51.86,59 21.44,33.09 16.75,35.86 28.59,71.62 75.9,229.23 128.7,263.17 339.41,352.12 -7.97,-16.42 -15.91,-15.67 -34.62,-24.53 -10.65,-5.05 -20.23,-10.64 -30.63,-16.11 -24.66,-12.97 -35.04,-19.04 -53.94,-40.33 -23.6,-26.59 -61.26,-66.8 -74.95,-95.95 8.86,-7.09 1.44,-4.25 13.29,-1.33 73.93,34.15 36.71,59.06 149.67,123.81 52.32,29.99 86.66,26.48 138.43,79.74 15.71,16.17 28.93,22.46 33,33.7 -87.69,-13.49 -74.43,-7.1 -145.25,-14.87 -98.35,-10.79 -103.57,-35.79 -151.62,-50.25 87.91,71.49 215.86,52.51 258.35,91.84 -28.27,14.21 -166.49,-10.74 -201.16,-21.27 -86.18,-13.07 -200.82,-110.07 -240.58,-182.56 -37.64,-68.64 -21.96,-67.15 -33.87,-133.72 -4.23,-23.63 -12.24,-40.35 -13.69,-68.52 -1.36,-26.42 3.27,-52.12 2.06,-78.92 -16.9,-4.45 -17.65,-4.6 -33.2,9.21 -37.26,33.11 -67.69,36.28 -84.65,55.83l44.27 2.14c-36.44,107.6 -12.72,61.86 -9.49,125.77 -39.48,-16.12 -33.28,-52.77 -22.32,-88.95 -20.65,9.88 -23.22,10.68 -47.43,7.47 5.02,17.42 68.8,123.69 81.96,139.6 50.92,61.6 128.81,159.96 186.31,205.03 23.82,18.09 45.54,47.53 70.48,68.67 221.54,187.79 417.56,308.88 706.95,387.08 46.7,-41.84 93.47,-85.06 147.02,-116.91 51.84,-30.84 113.48,-59.46 158.78,-102.87 46.89,-44.94 95.37,-96.23 130.2,-152.12 57.1,-91.61 36.32,-132.03 52.3,-223.1 -139.38,-59.38 -213.35,-192.49 -231.44,-208.77 -50.43,14.22 -108.5,58.74 -224.53,59.65 -58.1,0.45 -230.03,-25.86 -263.3,-17.07 38.78,6.92 88.6,10.22 129.98,15.58 108.48,14.06 224.5,9.4 328.47,-25.54 29.03,-9.75 22.3,-5.56 24.7,-0.89 10.64,56.98 -247.86,74.71 -291.74,77 -137.2,7.17 -184.11,-51.9 -350.97,-26.58 10.74,-18.69 113.61,-63.91 136.31,-70.23 60.1,-16.72 110.52,-6.22 172.41,-7.42 56.94,-1.11 114.26,-0.94 169.67,-5.26 121.91,-9.49 209.98,-61.38 104.93,-39.81 -116.22,23.87 -233.56,36.08 -352.86,33.76 -34.36,-0.67 -72.78,-7.52 -105.93,-3.73 -22.46,2.57 -18.72,11.82 -94.46,19.05 -37.34,3.56 -64.01,5.57 -101.65,5.04 -21.57,-0.3 -88.61,10.76 -100.02,1.03 36.3,-22.84 133.15,-24.41 178.68,-30.91 -12.64,-10.63 -243.7,-50.29 -317,-103.97 -37.69,105.57 56.15,189.95 146.58,221.36 107.62,37.37 212.84,21.72 327.94,57.76 433.89,135.85 503.87,-3.96 605.95,7.91 -20.16,53.1 -42.31,57.39 -93.7,71.44 -290.16,79.3 -355.28,-55.72 -688.78,-80.5 -166.25,-12.35 -158.98,-33.27 -276.49,-81.37 -7.28,-10.72 -154.11,-119.91 -89.53,-239.33 -53.37,-24.83 -125.69,-120.14 -163.38,-166.73 -50.73,-62.73 -92.16,-113.17 -120.48,-189.54 -26.67,-71.9 -44.6,-151.91 -43.97,-229.5 0.41,-50.48 17.38,-164.65 43.79,-209.79 8.83,-15.09 32.4,-35.73 42.25,-13.19 8.57,13.1 -22.76,107.02 -26.77,131.33 -6.22,37.76 -11.62,83.27 -12.4,121.56 -0.96,47.1 20.33,180.7 53.34,209.14 6.32,-48.9 4.79,-96.43 9.69,-144.67 4.18,-41.12 17.39,-106.56 28.2,-146.62 31.88,-118.09 37.98,-162.55 138.42,-236.26 95.92,-70.39 286.86,-119.23 323.41,-146.55 25.39,-18.98 82.42,-49.23 98.45,-70.62 -31.85,-5.71 -60.27,2.91 -93,3.45 -12.14,12.88 -4.16,-6.04 -0.92,6.88l2.44 1.34c-31.16,8.68 -70.12,16.93 -101.69,27.82 -28.65,9.89 -61.38,34.27 -89.42,51.28 19.97,-36.98 73.59,-57.04 87.68,-69.09 -17.82,2 -71.19,20.62 -86.44,28.86 -26.91,14.54 -41.41,48.63 -64.88,62.05 -3.02,-17.18 25.49,-53.88 39.53,-69.07 71.5,-77.38 137.31,-67.75 197.96,-80.1 -25.45,-7.75 -72.02,-3.77 -99.39,-1.16 -106.81,10.19 -194.17,113.82 -229.07,123.2 -5.9,-51.62 78.07,-112.85 118.74,-134.99 60.73,-33.06 117.17,-24.31 170.66,-44.55 87.44,15.04 150.36,24.22 236.64,0.15 -135.5,-327.46 -4.69,-254.75 9.16,-212.6 20.2,61.48 21.29,112.1 58.22,201.73 30.69,1.58 48.56,-5.38 83.91,-2.32 -10.5,-14.55 -30.94,-21.08 -61.44,-89.9 -7.71,-17.4 -11.24,-33.57 -21.05,-50.51 -9.65,-16.67 -16.08,-30.93 -21.55,-50.1 -29.86,-104.68 -34.28,-135.6 7.26,-244.96 16.27,42.52 11.32,113.41 55.51,227.21 13.91,35.83 76.48,187.4 110.67,194.88 -51.73,-113.04 -69.16,-118.83 -108.14,-257.55 -25.88,-92.09 -38.83,-205.63 -26.06,-299.49l-9.48 -0.64c6.04,-57.29 -3.89,-83.73 17.28,-145.29 18.69,-54.35 45.27,-89.56 66.19,-137.35 -30.1,18.52 -81.51,101.18 -93.76,137.98 -19.41,58.3 -20.65,123.06 -37.57,176.32l-5.96 -6.28c7.83,-59.12 -9.36,-43.4 15.48,-158.16 -18.29,58.43 -19.27,86.11 -21.8,145.22 -2.53,59.1 -22.94,87.12 -42.59,138.04 -8.3,-26.08 -12.56,-106.4 -37.63,-147.71 -7.45,48.75 22.25,77.68 13.79,196.15l-6.67 5.92c-16.84,-29.86 -11.24,-145.38 -33.54,-155.05 -7,53.5 14.56,137.59 -9.88,148.62l-20.1 -74.21 -0.83 65.04c-18.97,14.26 -29.61,-2.45 -23.46,42.11 8.58,62.19 30.26,90.12 48.86,146.92 -2.16,39.1 28.01,111.78 29.59,152.52 -19.8,-18.75 -31.37,-83.42 -36.84,-112.45 -2.01,-27.79 -45.19,-116.74 -56.95,-126.22 -6.47,21.2 8.81,39.59 16.04,60.83 6.76,19.86 15.27,42.21 22.57,60.88 4.16,18.63 9.63,67.1 5.73,85.13l-3.47 -15.17c-6.25,-35.74 -45.6,-131.08 -72.89,-148.94 4.32,17.3 21.91,50.08 28.36,71.4 5.09,16.83 12.37,64.98 19.99,75.5 1.21,12.02 0.36,14.26 0.49,25.45l1.26 22.83 -16.2 -5.48c-9.25,-49.04 -29.7,-145.77 -74.22,-169.35 -10.9,14.58 14.86,49.47 33.9,83.41 15.7,27.99 20.22,60.54 26.48,91.52l-9.11 27.34c-12.09,-12.67 -45.31,-142.23 -87.56,-169.72 2.99,27.26 19.54,41.95 21.64,72.11 4.54,65.2 15.22,53.3 13.82,73.91 -59.53,-1.64 -24.31,-65.67 -73.7,-93.57 -2.26,19.3 6.68,28.66 8.36,46.35 1.07,11.26 -0.12,14.09 -2.56,23.44l-3.59 11.81c-1.62,4.83 -0.02,3.75 -3.3,8.64 -18.84,-4.3 -0.22,-13.37 -32.34,-8.83 -14.64,2.07 -25.45,5.28 -35.45,13.68 0.77,22.66 10.75,9.33 5.87,34.59 -28.48,-13.55 -24.49,-34.04 -64.38,-20.64 -31.25,10.5 -38.75,6.48 -43.23,43.91 -18.2,-13.76 -5,-13.62 -25.52,-23.13 -29.09,21.04 0.27,23.97 -3.75,55.5 -22.12,-5.95 -44.63,-15.17 -62.63,-5.73 9.19,15.05 19.5,15.24 21.03,32.54l-48.67 -12.51 -24.28 62.93c21.72,17.4 20.09,-3.62 23.18,21.86 -20.95,5.92 -17.76,-5.09 -40.93,-3.96l-17.98 35.34c-15.81,-11.2 -13.78,-15.44 -26.68,-28.6 -6.57,16.58 -4.52,19.67 -20.12,26.55 -24.13,-12.48 -4.35,-31.37 -50.56,-23.87 -20.35,3.3 -36.52,18.27 -53.95,18.16l-17.28 -30.63 -31.2 49.21c-24.74,-22.51 3.96,-2.76 -9.28,-23.86 -7.36,-11.74 -10.89,-8.96 -24.95,-11.11 -12.16,36.39 13.93,47.77 -18.24,74.6 -22.71,18.94 -33.29,43.07 -43.1,70.4 -21.45,59.77 -44.29,112.28 -70.82,168.01 -10.77,22.63 -14.8,35.84 -14.97,47.33l-0.1 0.02c-4.86,-69.07 3.43,-270.82 7.46,-272.52 0.42,-0.18 39.07,-42.73 62.91,-57.88 -19.73,-41.81 21.74,-90.77 57.58,-109.46 21.09,7.37 15.53,10.55 33.5,20.89 11.55,-12.02 25.86,-19.44 41.39,-23.96 35.27,-10.27 19.14,-18.26 39.34,-22.12 8.04,10.12 10.74,37.55 24.61,55.12 21.53,-34.53 32.94,-29.26 68.76,-15.77 -7.96,-40.66 31.96,-88.84 69.87,-47.32 9.38,-38.6 19.8,-57.55 62.33,-46.03 10.63,-52.54 33.72,-61.82 82.44,-45.76 15.61,-82.57 96.25,-74.45 127.16,-87.51 9.41,-31.98 1.88,-37.52 23.6,-71.68 11.39,-17.92 26.76,-38.53 39.96,-55.2 44.73,-56.5 59.92,-57.3 99.67,-63.02 2.42,-24 -55.29,-78.52 13.77,-117.27 -16.31,-33.7 -12.95,-56.36 14.62,-81.76 16.16,-14.88 7.6,-20.06 12.17,-39.94 5.51,-23.98 12.28,-18.34 25.81,-32.93 16.62,-17.94 9.69,-30.29 21.97,-48.13 7.84,-11.38 17.42,-11.75 27.99,-28.24 16.72,-26.09 30.95,-52.86 48.83,-79.46 29.14,-43.35 71.87,-101.16 109.02,-137.29 32.6,-31.7 99.33,-78.06 115.57,-116.92 48.88,-117.02 155.75,-147.59 237.87,-229.83 93.65,-93.78 164.77,-127.61 300.58,-108.34 48.97,6.95 135.32,21.38 179.67,0.4 27.04,-12.79 60.99,-9.41 89.28,-1.8 52.77,14.2 41.05,21.5 74.83,48.05 19.12,15.03 44.14,6.18 85.45,38.56 26.29,20.61 66.41,28.52 98.62,38.57 100.86,31.49 148.88,150.68 181.1,173.24 22.42,15.7 65.22,12.94 92.37,34.7 20.6,16.51 28.82,55.05 48.02,65.1 51.21,26.8 171.68,-26.7 247.88,88.6 30.32,45.87 46.57,106.96 32.37,160.31 51.76,39.8 58.75,120.42 40.71,183.11 -7.2,25.04 -12.25,25.72 -27.8,42.47 -12.55,13.52 -17.45,30.75 -26.36,47.44 -8.47,15.87 -48.83,67.36 -64.39,67.14l29.14 -88.03c-28.55,23.63 -69.5,85.64 -93.78,96.08l28.01 -98.55 -67.41 68.98 13.06 -72.58c-28.1,20.74 -45.68,59.6 -84.76,61.49 11.96,-38.88 21.25,-47.99 37.01,-80.28 -47.29,3.7 -42.68,68.37 -93.06,88.39l8.02 -59.95c-21.67,15.37 -38.21,36.29 -64.73,35.96l8.31 -48.29c-14.74,11.52 -29.2,29.4 -48.64,33.32 -10.57,-21.02 1,-32.36 -2.77,-50.63 -22.72,8.36 -21.82,29.26 -54.43,33.25l9.96 -50.53 -39.01 -1.41c-21.33,36.5 -27.04,38.36 -40.77,83.28 18.04,-15.85 16.21,-26.76 45.99,-21.79l-2.51 50.72 45.3 -35.44 -0.38 92.83 58.81 -74.41c3.93,15.94 -8.66,59.48 -17.65,76.98 -11.97,23.3 -39.24,46.65 -2.75,57.14 13.63,-30.34 11.71,-73.09 42.98,-85.22 4,11.03 2.4,10.79 4.03,23.27l5.93 25.8c8.52,-12.44 21.36,-26.37 35.19,-27.92 12.91,15.94 15.28,59.26 15.9,79.14 15.02,-18.45 53.16,-54.04 77.4,-56.52l1.43 80.75c22.79,-9.7 13,-19.16 37.24,-24.02 11.97,19.51 0.85,47.95 -3.09,70.01 14.22,-10.36 16.33,-16.32 28.75,-33.1 3.57,-4.83 8.85,-11.6 12.97,-16.26 10.44,-11.81 3.53,-7.46 16.56,-13.21l0.53 73.94 21.08 -36.45c29.72,91.89 -47.27,214.32 -142.64,225.62 -26.6,38.46 -23.31,58.19 -119.81,46.44 -156.69,-19.08 -165.12,-96.01 -246.58,-148.67 -37.74,-24.39 -100.65,-39.38 -144.21,-23.45 -27.25,9.97 -39.44,33.93 -52.94,37.02 -29.81,6.83 -31.52,-16.86 -64.09,14.41 -41.41,39.76 -65.88,59.3 -67.75,119.47 -2.27,73.03 50.38,177.91 76.14,247.29 21.17,3.2 113.22,-8.19 142.67,-10.68 287.71,-24.29 367.32,106.15 430.15,136.56 90.43,-67.15 128.47,-128.21 239.56,-175.85 47.15,-20.22 99.55,-23.04 149.6,-30.99 54.52,-8.67 139.54,-97.81 171.05,-148.1 17.04,-27.2 17,-61.16 34.23,-93.95 76.15,-144.93 350.23,-247.14 367.73,-115l-21.43 -6.1c-67.11,-4.71 -108.93,16.8 -160.65,54.88 -46.17,34 -96.69,83.25 -118.23,137.77 -19.23,36.59 -28.2,75.92 -52.55,109.61 -19.69,27.24 -42.61,52.45 -62.87,80.35 -76.85,105.78 -219.75,45.88 -356.53,131.57 -94.17,58.99 -94.88,106.99 -141.19,129.19 18.97,23.86 29.83,56.6 43.43,71.47 4.96,-52.81 47.59,-108.53 86.19,-138.69 117.67,-91.96 281.05,-64.87 353.87,-74.82 15.17,-2.07 54.67,-14.71 65.6,-12.05 -7.09,33.37 -147.34,38.09 -184.32,53.05 49.57,-1.19 98.1,-21.2 137.56,21.51 -10.33,2.79 -55.27,-5.32 -75.54,-4.02 -121.12,7.75 -242.29,53.81 -286.74,175.67 -13.87,38.02 -26.19,127.71 -17.92,160.52 1.62,-2.14 28.7,-211.16 94.17,-249.63 2.82,12.57 -57.71,152.32 -62.86,190.56 -7.71,57.37 -4.55,118.6 -4.28,175.67 -11.42,-14.39 -44.27,-101.51 -47.89,-120.35 -16.98,-88.39 14.29,-211.51 75.1,-267.58 16.25,-14.98 30.36,-26.6 49.57,-36.71 17.46,-9.19 39.99,-14.51 55.21,-27.54 -67.58,17.22 -125.77,61.32 -158.91,126.09 -13.88,27.12 -39.89,97.58 -42.32,126.96 -2.63,31.9 10.41,71.32 13.42,104.01 -17.94,-19.79 -20.1,-49.05 -40.76,-60.29 -19.75,-10.74 -29.03,-37.58 -39.5,-59.57 -74.55,-156.6 -207.13,-251.43 -376.09,-293.01 -129.44,-26.83 -239.03,32.88 -301.26,15.65 -70.86,-19.62 -56.4,-68.36 -71.68,-116.85 -18.65,-59.2 -72.07,-63.2 -121.77,-94.88 8.85,29.26 36.33,31.12 38.16,63.2 -31.58,-6.72 -114.86,-59.24 -149.92,-77.87 -51.76,-27.5 -98.63,-51.24 -154.61,-69.89 -140.03,-46.65 -189.97,-46.37 -324.24,-39.53 -203.15,10.35 -241.17,90.52 -366.09,175.48 -42.43,28.86 -70.38,45.34 -106.02,85.83 -18.64,2.67 -111.54,76.34 -131.76,94.34 -51.64,45.99 -65.41,106.5 -76.93,174.82 -16.51,97.93 3.72,241.46 77.65,312.41 7.57,40.8 144.41,148.56 184.2,174.83 148.25,97.87 387.41,140.39 561.5,110.74 40.2,-6.84 208.39,-47.96 231.95,-67.57 35.44,-20.25 58.62,-20.22 137.19,-73.94 98.48,-67.33 74.38,-123.98 102.84,-142.63 9.81,30 -14.56,89.49 -33.58,116.36 -25.03,35.35 -51.92,42.31 -79.21,73.03 31.48,-2.3 66.41,-37.44 92.83,-41.71 -36.02,68.34 -58.54,84.81 -121.88,114.69 -22.07,10.41 -46.06,25.04 -66.55,31.82 -22.91,7.58 -53.91,12.91 -72.64,27.35 39.9,-0.75 36.69,-18.27 74.24,-16.77 23.14,0.92 -2.04,3.53 20.99,-12.36l10.57 18.25c13.63,53.59 99.95,131.19 142.31,170.59 115.66,107.55 305.93,179.5 466.18,165.69 45.67,-3.94 184.32,-23.07 214.64,-49.53 -15.16,-0.77 -88.23,16.47 -110.53,20.35 -31.31,5.45 -76.87,11.08 -108.84,12.05 -148.83,4.52 -351.33,-68.32 -458.67,-175.82 -33.77,-33.82 -127.38,-114.55 -132.69,-160.54 7.96,-10.68 10.37,-11.46 24.27,-16.31 0.6,12.2 34.25,67.03 44.04,80.87 20.16,28.48 36.09,46.2 64.51,67.66 112.8,85.16 259.1,154.35 403.84,152.86 55.88,-0.57 136.66,-0.71 186.46,-25.91l-143.39 13.21c-51.06,5.81 -106.2,-2.93 -157.88,-18.82 -201.74,-62.05 -237.72,-143.16 -265.71,-156.9 5.64,12.66 13.39,32.84 22.05,42.98l-66.7 -75.93c-20.82,-24.63 -52.79,-48.82 -49.3,-84.19 54.2,71.73 58.94,78.11 135.02,129.65 64.55,43.72 115.82,75.71 191.89,98.19 199.51,58.98 274.87,1.47 388.96,-11.41 87.59,-9.89 130.13,8.03 212.31,30.67 115.59,31.84 143.56,75.15 202.22,94.33 162.89,53.25 246.67,-65.83 292.57,-202.72 11.53,-34.4 30.04,-86.95 37.66,-120.92 11.54,-51.43 -0.42,-40.75 42,-80.57 47.76,-44.83 86.47,-80.54 130.65,-129.97 103.22,-115.49 119.46,-277.44 170.17,-419.66 24.41,-68.45 56.8,-148.22 90.02,-212.77 35.4,-68.79 79.55,-122.04 88.46,-201.32 10.61,-94.36 -45.97,-89.45 26.25,-190.67 30.08,-42.17 16.22,-140.96 17.42,-192.48 1.19,-53.82 -6.87,-94.85 1.14,-149.36 3.68,-25.06 9.94,-49.45 1.53,-72.95 -12.19,-34.04 -10.78,-38.86 10.15,-69 19.23,-17.7 6.12,-70.38 -6.74,-91.08 -15.67,-25.22 -52.28,-43.81 -76.77,-65.41 -4.12,13.83 1.9,40.54 2.22,57.41l-8.44 183.94c-3.44,82.44 -3.9,174.18 -24.74,255.03 -20.07,-27.42 -12.96,-121.92 -13.51,-160.34 -0.79,-54.99 -6.35,-109.68 0.15,-165.46 3.85,-33.02 29.36,-152.28 11.29,-170.6 -10.06,-10.2 -58.76,-40.14 -72.98,-44.59 -24.47,-7.65 -46.62,13.95 -64.36,30.89 -60.98,-13.44 -67.8,-35.77 -131.55,-17.21 -27.44,0.96 -134.57,11.29 -157.44,17.81 -61.15,17.45 -27.14,109.29 -18.97,148.6 13.61,65.55 -10.3,109.54 -16.97,174.06 -7.83,75.7 53.86,81.65 109.05,109.75 14.05,11.75 26.87,26.99 40.81,39.34 15.33,13.58 32.33,24.18 47.48,37.29 -14.23,2.92 -11.24,-0.67 -26.8,-7.26 -2.37,12.6 -3.92,16.32 4.79,25.72 -102.73,47.99 -61.84,-18.53 -123.15,-55 -30.98,-18.43 -70.21,-22.23 -96.74,-47.33 -50.53,-47.8 -26.8,-127.92 -17.19,-189.52 12.84,-82.38 -20.51,-113.25 -13.59,-190.78 3.12,-34.89 8.06,-77.54 45.18,-90.03 3.9,-1.31 62.62,-13.92 124.66,-27.24l0.22 0.94 48.3 -11.36c29.29,-6.3 56.18,-12.12 74.74,-16.23 15.67,-3.47 25.42,-5.73 25.64,-6.04l-1.57 -0.97 0.6 -0.14c2.61,2.99 5.27,5.77 8.01,8.33 -11.32,-0.36 -22.63,-1.12 -32.67,-1.17 10.04,0.06 21.35,0.81 32.67,1.17 19.41,18.06 43.26,24.82 86.29,14.62 92.03,-21.83 110.24,-13.37 186.23,42.52 51.14,37.61 119.23,65.69 139.81,130.21 20.93,65.65 -2.54,311.69 -4.67,394.23 -1.91,74.32 -21.57,139.67 -27.36,211.42 -5.95,-3.36 1.32,-0.31 0,0 -22.19,5.17 -110.65,426.74 -112.42,404.41 -8.51,4.07 -63.45,124.24 -70.08,140.43 -73.86,180.45 -55.55,295.52 -173.04,460.05 -51.74,72.45 -130.29,137.75 -177.1,207.7 -20.07,29.99 -68.01,188.82 -133.85,298.43 -60.96,101.48 -66.9,120.3 -224.26,116.52 -115.24,-2.77 -223.62,-71.54 -318.81,-61.14 -113.61,12.41 -187.09,48.79 -256.24,60.99 -80.96,14.27 -189.27,38.42 -270.64,32.59zm-578.51 -1637.82c-38.71,-74.88 -36.26,-169.43 -63.93,-227.41 6.21,44.26 9.52,63.85 9.72,110.17 0.06,13.5 4.53,105.31 6.21,110.57l47.99 6.67zm429.79 -110.96c20.9,-49.35 44.28,-57.4 38.11,-72.8l-51.08 46.84 12.97 25.97zm25.72 -93.91c8.46,20.26 31.92,23.5 46.09,10.01 -9.46,-12.41 -31.72,-15.65 -46.09,-10.01zm-923.43 -257.75c20.93,-62.11 24.66,-134.7 -2.99,-192.34 -16.28,47.5 5.91,95.2 -1.27,166.21l4.25 26.13zm690.81 548.9c-38.75,-50.41 -48.94,-81.96 -56.17,-159.56 -16.46,-176.56 -45.43,-197.82 -61.64,-342.31 -12.22,-108.91 6.58,-149.51 5.27,-185.97 -38.8,103.89 -32.89,271.05 -5.94,377.11 13.99,55.04 25.38,112.09 39.87,166.46 18.37,68.93 23.56,116.42 78.61,144.28zm860.85 -402.7c-13.85,23.08 -33.43,32.35 -44.32,56.65l25.38 4.81 18.93 -61.46zm21.67 101.28c37.38,-0.31 60.35,-48.99 63.57,-83.44l-63.57 83.44zm-875.04 -59.69c6.72,5.42 10.96,12.56 13.51,16.93l15.32 -27.64 13.64 7.86c10.94,30.57 29.22,91.89 61.22,103.28l-1.52 -17.93 -5.33 -18.39 9.85 2.22c27.45,79.51 56.35,103.97 75.57,142.56 5.31,-23.05 -5.64,-33.08 -15.9,-57.4 -39.68,-94.11 -18.53,-123.65 -74.57,-154.34 -11.46,-10.51 -31.01,-27.87 -45.71,-42.12 -20,-19.4 -19.02,-26.04 -32.46,-48.31 -108.79,-180.24 10.08,-273.24 -35.9,-374.44 -21.1,49.9 -35.3,184.52 -31.73,240.45 2.47,38.64 9.3,69.49 15.37,107.09 5.46,33.8 10.3,69.33 17.24,102.46 14.37,68.53 31.95,134.56 42.12,204.85 13.63,94.16 56.89,100.37 109.49,167.48 2.76,-120.05 -114.22,-252.16 -130.22,-354.63zm630.12 -203.01c13.36,-11.26 20.25,-43.49 26.29,-63.42l-33.27 -11.21c7.31,37.16 9.27,33.74 6.98,74.63zm-1078.77 -201.54l-4.87 47.22c-10.84,-21.49 -13.77,-49.52 -19.36,-71.18 -14.33,13.81 -9.99,28.04 -26.27,37.6 -21.63,-8.68 -17.05,-27.52 -15.11,-51.15l4.45 -19.27c-10.92,12.06 -9.54,25.53 -15.49,39.82 -10.87,26.11 -7.86,8.08 -26.43,24.64l-5.04 67.64c-11.71,37.32 1.28,43.24 5.49,77.51 14.63,119.18 27.68,239.25 57.31,355.43 10.77,42.24 33.8,85.6 41.2,128.75 42.14,11.07 26.15,-6.72 97.95,15.31 -21.59,-36.19 -66.89,-198.83 -63.43,-243.39 28.34,35.1 22.36,100.2 45.84,140.7 3.64,-19.25 -0.04,-29.35 0.46,-47.31 0.56,-19.88 6.91,-32.72 9.24,-51.91 -16.45,-6.46 20.57,-4.8 -7.11,2.19 -15.47,3.91 8.26,8.85 -5.68,0.79 -0.59,-16.29 1.44,-27.92 1.34,-42.83 -0.12,-17.14 -4.43,-21.62 -6.28,-36.59 -2.44,-19.74 -1.78,-57.3 -1.98,-78.33 -0.51,-55.69 5.08,-110.86 10.09,-166.97 4.81,-53.87 78.18,-329.74 110.85,-355.49 -12.75,45.94 -31.3,91.17 -31.63,138.76 -1.29,183.59 -3.16,395.97 56.48,571.32 14.74,43.33 60.16,166.4 62.73,204.06l28.98 9.5c-25.75,-26.02 -44.05,-170.25 -50.01,-213.69 -24.96,-182.03 3.11,-326.92 49.85,-506.65 13.6,-52.31 56.42,-249.98 70.31,-274.75 7.5,16.09 -52.88,290.8 -41.49,322.16 20.81,-74.83 31.94,-148.19 64.56,-221.11 61.22,-136.86 130.49,-80.05 133.2,-72.98 5.08,35.26 -91.66,113.33 -79.01,169.59 10.86,-18.24 13.64,-48.27 28.49,-65.97 8.4,-4.47 4.79,-1.44 16.47,18.2 11.93,20.05 33.07,50.84 38.57,69.97 6.7,23.27 24.42,83.58 21.06,105.56 -36,-52.47 -41.72,-102.12 -59.31,-123.08 2.03,46.24 48.53,82.71 36.62,141.27 -10.67,52.46 -17.43,105.55 -0.38,157.16 -1.78,57.59 78.9,133.23 120.76,168.48 63.62,53.58 160.51,30.33 235.87,45.56 138.94,28.07 204.75,149.13 279.31,199.58 23.88,16.16 87.83,42.8 114.12,29 55.22,2.71 147.95,-33.22 165.7,-90.55 -25.68,-11.96 -11.29,14.13 -34.31,-13.51 -22.3,8.76 -15.33,6.82 -38.51,4.85 -9.64,-14.61 -3.57,-14.1 -7.45,-27.68 -50.53,23.28 -40.87,-19.24 -41.13,-21.01 -14.38,16.04 -24.02,10.95 -44.23,2.09l-2.72 -32.02c-23.47,1.06 -19.94,6.39 -43.43,-1.7 -4.08,-18.98 -7.47,-13.56 -4.11,-33.92 -9.38,9.03 -20.78,16.1 -37.7,6.84 -16.73,-9.16 -8.32,-13.67 -13.87,-32.18 -19.79,-5.05 -43.53,18.29 -27.97,-85.31 -20.48,53.12 -65.13,43.81 -55.5,-27.54l-36.61 0.12c-0.01,-0.03 -15.46,-96.46 -15.9,-103.8 -14.08,13.16 -10.64,18.29 -29.65,21.54 -13.81,-22.49 -3.39,-44.83 7.49,-74.17 -13.74,8.33 -24.21,18.28 -43.47,9.66 -18.27,-8.17 -11.92,-24.6 -13.06,-41.4 -19.3,-9.7 -30.09,-10.15 -50.85,-8.57 41.34,46.21 90.18,179.31 104.75,245.85 -28.95,-10.46 -74.82,-102.71 -165.92,-175.55 -86.61,-69.25 -114.45,-99.93 -223.8,-142.76 27.06,-23.19 97.75,6.23 130.67,18.73 39.69,15.07 71.27,40.16 103.77,65.03 -13.97,-40.8 -50.74,-48.44 -55.94,-86.45 21.37,17.57 33.76,38.94 59.39,50.64 -11.86,-18.55 -30.81,-36.02 -43.11,-59.37 -17.18,-32.63 -2.22,-41.19 -35.54,-63.86 -18.25,-12.42 -119.26,-84.39 -121.91,-98.14 32.43,-5.65 127.44,46.83 160.84,61.31 -18.62,-21.07 -43.94,-27.88 -59.26,-43.01 26.79,-7.28 76.04,27.52 91.78,53.28 17.73,29.01 17.64,54.61 39.92,83.33 8.02,-8.42 0.76,-14.42 21.95,-24.07 17.57,22.5 10.53,36.37 13.94,57.96 41.16,-25.17 46.05,3.02 63.43,26.44 18.08,-1.73 7.03,-6.63 26.82,-8.77l14.81 26.95c52.96,-16.69 28.31,-26.56 65.94,16.37 16.88,-2.54 24.5,-9.92 46.42,-8.6l18 29.67c39.49,-19.87 28.84,-10.35 57.49,13.33 34.23,-5.41 30.38,-20.52 51.11,17.22 51.89,-13.97 40.86,-37.23 62.52,9.31 12.64,-34.49 19.91,-31.03 42.04,-10.8 25.25,-10.05 44.97,-44.32 50.67,3.47 1.1,-0.41 2.46,-1.23 3.13,-1.59 51.17,-27.03 46.67,0.58 56.56,10.9l45.62 -30.91c16.07,11.39 13.97,15.77 19.56,32.87 14.36,-37.93 26.42,-24.57 57.35,-22.64 11.11,-22.44 10.34,-47.75 11.12,-71.93 -7.91,-31.32 3.13,-44.05 -13.1,-87.96 -39.13,-105.9 -53.02,-183.52 -166.15,-199.09 18.26,23.3 37.69,31.78 51.34,63.89l87.52 223.72c-11.96,-11.16 -39.3,-67.71 -55.27,-89.04 -22.42,-29.95 -37.44,-53.97 -56.61,-86.26 -62.72,-105.61 -86.85,-75.85 -166.75,-140.15 -31.66,-25.47 -40.13,-66.22 -72.17,-77.58 -79.4,-28.14 -39.85,5.84 -92.93,-60.46 -18.89,-23.59 -58.31,-38.03 -85.06,-71.14 -36.68,-45.4 -33.42,-41.3 -93.06,-63.75 -29.01,-12.62 -41.53,-21.05 -74.53,-29.89 -34.09,-9.12 -37.68,-17.14 -64.59,-35.56 -35.78,-65.53 -106.08,-12.83 -196.91,-18.74 -37.84,-2.46 -72.4,-1.35 -111.23,-6.53 -36.14,-4.82 -77.02,-15.96 -108.5,3.29l48.17 3.91c-34.77,20.77 -109.62,-7.74 -258.77,120.13 -100.48,86.14 -133.94,96.36 -176.68,257.8 -10.69,40.38 -45.91,192.6 -24.25,222.42z"/>
    </g>
   </g>
   <path class="fil6" d="M2047.17 3807.48c-972.19,0 -1760.31,-788.12 -1760.31,-1760.31 0,-972.19 788.12,-1760.31 1760.31,-1760.31 972.19,0 1760.31,788.12 1760.31,1760.31 0,972.19 -788.12,1760.31 -1760.31,1760.31z"/>
   <path class="fil2 str1" d="M2047.17 3877.97c1011.12,0 1830.8,-819.68 1830.8,-1830.8 0,-1011.12 -819.68,-1830.8 -1830.8,-1830.8 -1011.12,0 -1830.8,819.68 -1830.8,1830.8 0,1011.12 819.68,1830.8 1830.8,1830.8zm0 -70.49c-972.19,0 -1760.31,-788.12 -1760.31,-1760.31 0,-972.19 788.12,-1760.31 1760.31,-1760.31 972.19,0 1760.31,788.12 1760.31,1760.31 0,972.19 -788.12,1760.31 -1760.31,1760.31z"/>
   <path class="fil2 str2" d="M582.84 1561.17l-475.52 -157.82 475.52 157.82zm3400.84 -167.93l-474.66 160.28 474.66 -160.28zm0 0c-272.69,-807.83 -1036.67,-1389.48 -1936.51,-1389.48 -899.98,0 -1664.01,581.85 -1936.59,1389.88 -0.28,0.82 -0.57,1.63 -0.85,2.45l-0.07 0.23 0 0c-0.78,2.33 -1.55,4.66 -2.33,6.99l-0.01 0.03 475.52 157.82 0.12 -0.35c3.84,-11.56 7.8,-23.05 11.9,-34.49 7.48,-20.98 15.42,-41.7 23.75,-62.2 234.65,-577.76 801.42,-959.52 1428.56,-959.52 679.28,0 1256,439.08 1461.85,1048.9l474.66 -160.28z"/>
   <circle class="fil6" cx="2047.17" cy="2047.17" r="1642.2"/>
   <text x="492.51" y="1480.47"  class="fil7 fnt0"><tspan rotate="297">W</tspan></text>
   <text x="698.32" y="1096.83"  class="fil7 fnt0"><tspan rotate="311">A</tspan></text>
   <text x="897.02" y="862.92"  class="fil7 fnt0"><tspan rotate="322">T</tspan></text>
   <text x="1125.85" y="682.84"  class="fil7 fnt0"><tspan rotate="330">T</tspan></text>
   <text x="1379.7" y="539.41"  class="fil7 fnt0"><tspan rotate="341">R</tspan></text>
   <text x="1633.41" y="453.12"  class="fil7 fnt0"><tspan rotate="350">E</tspan></text>
   <text x="1890.94" y="408.92"  class="fil7 fnt0"><tspan rotate="359">X</tspan></text>
   <text x="2193.24" y="410.68"  class="fil7 fnt0"><tspan rotate="7"> </tspan></text>
   <text x="2373.6" y="432.83"  class="fil7 fnt0"><tspan rotate="16">E</tspan></text>
   <text x="2627.53" y="499.51"  class="fil7 fnt0"><tspan rotate="27">N</tspan></text>
   <text x="2931.35" y="653.91"  class="fil7 fnt0"><tspan rotate="38">E</tspan></text>
   <text x="3138.93" y="813.12"  class="fil7 fnt0"><tspan rotate="46">R</tspan></text>
   <text x="3322.77" y="1007.87"  class="fil7 fnt0"><tspan rotate="55">G</tspan></text>
   <text x="3485.16" y="1241.71"  class="fil7 fnt0"><tspan rotate="66">Y</tspan></text>
   <circle class="fil6" cx="2047.17" cy="2047.17" r="2047.17"/>
  </g>
 </g>
</svg>
