<svg class="svg-icon-table-chart" xmlns:xlink="http://www.w3.org/1999/xlink"  xmlns="http://www.w3.org/2000/svg"  id="screenshot-69de1820-7356-80b2-8002-be407ed8a7ac" viewBox="1489.375 1637.969 38.25 35.063" style="-webkit-print-color-adjust: exact;" fill="black" version="1.1"><g id="shape-69de1820-7356-80b2-8002-be407ed8a7ac"><g class="fills" id="fills-69de1820-7356-80b2-8002-be407ed8a7ac"><path fill="black" rx="0" ry="0" d="M1527.227,1669.445L1492.961,1669.445L1492.961,1638.367C1492.961,1638.148,1492.782,1637.969,1492.563,1637.969L1489.773,1637.969C1489.554,1637.969,1489.375,1638.148,1489.375,1638.367L1489.375,1672.633C1489.375,1672.852,1489.554,1673.031,1489.773,1673.031L1527.227,1673.031C1527.446,1673.031,1527.625,1672.852,1527.625,1672.633L1527.625,1669.844C1527.625,1669.625,1527.446,1669.445,1527.227,1669.445ZZM1497.344,1665.461L1500.133,1665.461C1500.352,1665.461,1500.531,1665.282,1500.531,1665.063L1500.531,1657.891C1500.531,1657.671,1500.352,1657.492,1500.133,1657.492L1497.344,1657.492C1497.125,1657.492,1496.945,1657.671,1496.945,1657.891L1496.945,1665.063C1496.945,1665.282,1497.125,1665.461,1497.344,1665.461ZZM1504.914,1665.461L1507.703,1665.461C1507.922,1665.461,1508.102,1665.282,1508.102,1665.063L1508.102,1649.125C1508.102,1648.906,1507.922,1648.727,1507.703,1648.727L1504.914,1648.727C1504.695,1648.727,1504.516,1648.906,1504.516,1649.125L1504.516,1665.063C1504.516,1665.282,1504.695,1665.461,1504.914,1665.461ZZM1512.484,1665.461L1515.273,1665.461C1515.493,1665.461,1515.672,1665.282,1515.672,1665.063L1515.672,1653.010C1515.672,1652.791,1515.493,1652.611,1515.273,1652.611L1512.484,1652.611C1512.265,1652.611,1512.086,1652.791,1512.086,1653.010L1512.086,1665.063C1512.086,1665.282,1512.265,1665.461,1512.484,1665.461ZZM1520.055,1665.461L1522.844,1665.461C1523.063,1665.461,1523.242,1665.282,1523.242,1665.063L1523.242,1645.141C1523.242,1644.921,1523.063,1644.742,1522.844,1644.742L1520.055,1644.742C1519.836,1644.742,1519.656,1644.921,1519.656,1645.141L1519.656,1665.063C1519.656,1665.282,1519.836,1665.461,1520.055,1665.461ZZ"/></g></g></svg>