<svg class="svg-icon-table" xmlns:xlink="http://www.w3.org/1999/xlink" xmlns="http://www.w3.org/2000/svg" id="screenshot-ceea669b-d506-80c0-8002-be3fc3f2f809" viewBox="0 0 33.688 42.875" style="-webkit-print-color-adjust: exact;" fill="none" version="1.1"><style data-loading="false"></style><g xmlns:xlink="http://www.w3.org/1999/xlink" width="200" height="200" class="icon" id="shape-ceea669b-d506-80c0-8002-be3fc3f2f809" style="fill: rgb(0, 0, 0);" ry="0" rx="0" version="1.1"><g id="shape-ceea669b-d506-80c0-8002-be3fc3f2f80a"><defs><pattern patternUnits="userSpaceOnUse" x="3.34375" y="21.4375" height="17" width="26" data-loading="false" id="fill-0-rumext-id-2"><g><rect width="26" height="17" style="fill: rgb(0, 0, 0); fill-opacity: 1;"/></g></pattern></defs><g transform="matrix(1.000000, 0.000000, 0.000000, 1.000000, 0.000000, 0.000000)" class="text-container" x="3.34375" y="21.4375" width="26" height="17" rx="0" ry="0"><g class="fills" id="fills-ceea669b-d506-80c0-8002-be3fc3f2f80a"><text x="3.34375" y="39.4375" dominant-baseline="ideographic" textLength="25.015625" lengthAdjust="spacingAndGlyphs" style="text-transform: none; font-family: monospace; letter-spacing: normal; font-style: normal; font-weight: 700; white-space: pre; font-size: 14px; text-decoration: none solid rgb(0, 0, 0); direction: ltr; fill: rgb(0, 0, 0); fill-opacity: 1;">.html</text></g></g></g><g id="shape-ceea669b-d506-80c0-8002-be3fc3f2f80d"><g class="fills" id="fills-ceea669b-d506-80c0-8002-be3fc3f2f80d"><path rx="0" ry="0" d="M33.238,10.747L22.940,0.450C22.653,0.163,22.265,0.000,21.859,0.000L1.531,0.000C0.684,0.000,0.000,0.684,0.000,1.531L0.000,41.344C0.000,42.191,0.684,42.875,1.531,42.875L32.156,42.875C33.003,42.875,33.688,42.191,33.688,41.344L33.688,11.834C33.688,11.427,33.525,11.035,33.238,10.747ZL33.238,10.747ZM21.150,3.531L30.156,12.537L21.150,12.537L21.150,3.531ZL21.150,3.531ZM30.242,39.430L3.445,39.430L3.445,3.445L17.896,3.445L17.896,13.781C17.896,14.891,18.796,15.791,19.906,15.791L30.242,15.791L30.242,39.430ZL30.242,39.430Z"/></g></g></g></svg>